# xmcd
#
# Track frame offsets:
#	150
#	10479
#	25216
#	37014
#	55496
#	61054
#	74670
#	82354
#	98628
#	110487
#	121015
#	131358
#	144908
#	158342
#	167111
#	181263
#
# Disc length: 2560
#
# Revision: 1
# Processed by: cddbd v1.5.1PL0 Copyright (c) Steve Scherf et al.
# Submitted via: CDex 1.40PlusFr
# Normalized: r0:TDELIM( - )
#
DISCID=d509fe10
DTITLE=Artistes variés - Total Country CD 3
DYEAR=1900
DGENRE=Country
TTITLE0=Frankie Laine - I believe
TTITLE1=Tina Turner - Good hearted woman
TTITLE2=Ricky Nelson - Fools rush in
TTITLE3=Federation - Clear road
TTITLE4=Willie Nelson - The ghost
TTITLE5=Lynn Anderson - Talking in your sleep
TTITLE6=Jim Reeves - Oklahoma Hills
TTITLE7=Lynn Anderson - The Devil went down to Georgia
TTITLE8=Tina Turner - Stand by your man
TTITLE9=Kenny Rogers - Ticket to nowhere
TTITLE10=Ricky Nelson - Hello Mary Lou goodbye heart
TTITLE11=Federation - Cowboy reggae
TTITLE12=Kenny Rogers - Shine on Ruby Mountain
TTITLE13=Patsy Cline - Come on in and make yourself at home
TTITLE14=Freddy Fender - Wasted days and wasted nights
TTITLE15=Patsy Cline - Stop, look and listen
EXTD=ID3G: 2
EXTT0=
EXTT1=
EXTT2=
EXTT3=
EXTT4=
EXTT5=
EXTT6=
EXTT7=
EXTT8=
EXTT9=
EXTT10=
EXTT11=
EXTT12=
EXTT13=
EXTT14=
EXTT15=
PLAYORDER=
